<svg xmlns="http://www.w3.org/2000/svg" viewBox="0 0 120 120"><path d="M50 22q-4-14 8-16q-2 8 4 12q4-12 16-9q-9 4-9 13z" fill="#E8481C"/><path d="M50 104v10M70 104v10" stroke="#B57F00" stroke-width="5" stroke-linecap="round"/><ellipse cx="60" cy="72" rx="30" ry="36" fill="#F06B3C"/><path d="M33 60q-14 22 4 42q10-16 6-40z" fill="#00897B"/><path d="M87 60q14 22-4 42q-10-16-6-40z" fill="#00897B"/><ellipse cx="60" cy="82" rx="17" ry="21" fill="#FFD27A"/><circle cx="60" cy="42" r="27" fill="#F06B3C"/><circle cx="49" cy="39" r="9.5" fill="#fff"/><circle cx="71" cy="39" r="9.5" fill="#fff"/><circle cx="50.5" cy="40.5" r="5.5" fill="#0E1630"/><circle cx="72.5" cy="40.5" r="5.5" fill="#0E1630"/><circle cx="52.5" cy="38" r="2" fill="#fff"/><circle cx="74.5" cy="38" r="2" fill="#fff"/><ellipse cx="40" cy="52" rx="5" ry="3.5" fill="#FF8FA3"/><ellipse cx="80" cy="52" rx="5" ry="3.5" fill="#FF8FA3"/><path d="M53 50q7-5 14 0q-2 13-7 15q-5-2-7-15z" fill="#FFC43D" stroke="#D99E10" stroke-width="1.5" stroke-linejoin="round"/></svg>
